<mxfile host="app.diagrams.net" agent="Mozilla/5.0 (Windows NT 10.0; Win64; x64) AppleWebKit/537.36 (KHTML, like Gecko) Chrome/137.0.0.0 Safari/537.36" version="26.2.14" pages="3">
  <diagram name="Page-1" id="T8L1as_ZW1PgO6N6HEMR">
    <mxGraphModel dx="786" dy="459" grid="1" gridSize="10" guides="1" tooltips="1" connect="1" arrows="1" fold="1" page="1" pageScale="1" pageWidth="850" pageHeight="1100" math="0" shadow="0">
      <root>
        <mxCell id="0" />
        <mxCell id="1" parent="0" />
        <mxCell id="Mwi1WYG2rO0tmVBABfF1-8" value="" style="edgeStyle=orthogonalEdgeStyle;rounded=0;orthogonalLoop=1;jettySize=auto;html=1;" edge="1" parent="1" source="Mwi1WYG2rO0tmVBABfF1-1" target="Mwi1WYG2rO0tmVBABfF1-7">
          <mxGeometry relative="1" as="geometry">
            <Array as="points">
              <mxPoint x="370" y="220" />
              <mxPoint x="200" y="220" />
            </Array>
          </mxGeometry>
        </mxCell>
        <mxCell id="Mwi1WYG2rO0tmVBABfF1-10" value="" style="edgeStyle=orthogonalEdgeStyle;rounded=0;orthogonalLoop=1;jettySize=auto;html=1;" edge="1" parent="1" source="Mwi1WYG2rO0tmVBABfF1-1" target="Mwi1WYG2rO0tmVBABfF1-9">
          <mxGeometry relative="1" as="geometry" />
        </mxCell>
        <mxCell id="Mwi1WYG2rO0tmVBABfF1-14" value="" style="edgeStyle=orthogonalEdgeStyle;rounded=0;orthogonalLoop=1;jettySize=auto;html=1;" edge="1" parent="1" source="Mwi1WYG2rO0tmVBABfF1-1" target="Mwi1WYG2rO0tmVBABfF1-13">
          <mxGeometry relative="1" as="geometry">
            <Array as="points">
              <mxPoint x="690" y="220" />
            </Array>
          </mxGeometry>
        </mxCell>
        <mxCell id="QBl1TxjDk_r0X_SEcN-i-2" value="" style="edgeStyle=orthogonalEdgeStyle;rounded=0;orthogonalLoop=1;jettySize=auto;html=1;" edge="1" parent="1" source="QBl1TxjDk_r0X_SEcN-i-1" target="Mwi1WYG2rO0tmVBABfF1-1">
          <mxGeometry relative="1" as="geometry" />
        </mxCell>
        <mxCell id="Mwi1WYG2rO0tmVBABfF1-1" value="Login Successful" style="ellipse;whiteSpace=wrap;html=1;" vertex="1" parent="1">
          <mxGeometry x="320" y="170" width="120" height="80" as="geometry" />
        </mxCell>
        <mxCell id="Mwi1WYG2rO0tmVBABfF1-7" value="Create" style="whiteSpace=wrap;html=1;" vertex="1" parent="1">
          <mxGeometry x="140" y="360" width="120" height="60" as="geometry" />
        </mxCell>
        <mxCell id="Mwi1WYG2rO0tmVBABfF1-9" value="Read" style="whiteSpace=wrap;html=1;" vertex="1" parent="1">
          <mxGeometry x="270" y="360" width="120" height="60" as="geometry" />
        </mxCell>
        <mxCell id="Mwi1WYG2rO0tmVBABfF1-11" value="Update" style="whiteSpace=wrap;html=1;" vertex="1" parent="1">
          <mxGeometry x="410" y="360" width="120" height="60" as="geometry" />
        </mxCell>
        <mxCell id="Mwi1WYG2rO0tmVBABfF1-13" value="Delete" style="whiteSpace=wrap;html=1;" vertex="1" parent="1">
          <mxGeometry x="550" y="360" width="120" height="60" as="geometry" />
        </mxCell>
        <mxCell id="Mwi1WYG2rO0tmVBABfF1-15" value="" style="endArrow=classic;html=1;rounded=0;" edge="1" parent="1">
          <mxGeometry width="50" height="50" relative="1" as="geometry">
            <mxPoint x="490" y="220" as="sourcePoint" />
            <mxPoint x="490" y="360" as="targetPoint" />
          </mxGeometry>
        </mxCell>
        <mxCell id="QBl1TxjDk_r0X_SEcN-i-5" value="" style="edgeStyle=orthogonalEdgeStyle;rounded=0;orthogonalLoop=1;jettySize=auto;html=1;" edge="1" parent="1" source="QBl1TxjDk_r0X_SEcN-i-6" target="QBl1TxjDk_r0X_SEcN-i-4">
          <mxGeometry relative="1" as="geometry" />
        </mxCell>
        <mxCell id="QBl1TxjDk_r0X_SEcN-i-1" value="Login" style="ellipse;whiteSpace=wrap;html=1;" vertex="1" parent="1">
          <mxGeometry x="320" y="10" width="120" height="80" as="geometry" />
        </mxCell>
        <mxCell id="QBl1TxjDk_r0X_SEcN-i-11" value="" style="edgeStyle=orthogonalEdgeStyle;rounded=0;orthogonalLoop=1;jettySize=auto;html=1;" edge="1" parent="1" source="QBl1TxjDk_r0X_SEcN-i-10" target="QBl1TxjDk_r0X_SEcN-i-1">
          <mxGeometry relative="1" as="geometry" />
        </mxCell>
        <mxCell id="QBl1TxjDk_r0X_SEcN-i-3" value="yes" style="text;html=1;align=center;verticalAlign=middle;whiteSpace=wrap;rounded=0;" vertex="1" parent="1">
          <mxGeometry x="350" y="120" width="60" height="30" as="geometry" />
        </mxCell>
        <mxCell id="QBl1TxjDk_r0X_SEcN-i-4" value="Incorrect Credentials" style="whiteSpace=wrap;html=1;" vertex="1" parent="1">
          <mxGeometry x="520" y="20" width="120" height="60" as="geometry" />
        </mxCell>
        <mxCell id="QBl1TxjDk_r0X_SEcN-i-8" value="" style="edgeStyle=orthogonalEdgeStyle;rounded=0;orthogonalLoop=1;jettySize=auto;html=1;" edge="1" parent="1" source="QBl1TxjDk_r0X_SEcN-i-6" target="QBl1TxjDk_r0X_SEcN-i-4">
          <mxGeometry relative="1" as="geometry" />
        </mxCell>
        <mxCell id="QBl1TxjDk_r0X_SEcN-i-6" value="No" style="text;html=1;align=center;verticalAlign=middle;whiteSpace=wrap;rounded=0;" vertex="1" parent="1">
          <mxGeometry x="440" y="35" width="60" height="30" as="geometry" />
        </mxCell>
        <mxCell id="QBl1TxjDk_r0X_SEcN-i-9" value="" style="endArrow=classic;html=1;rounded=0;exitX=0;exitY=0.5;exitDx=0;exitDy=0;exitPerimeter=0;" edge="1" parent="1" source="QBl1TxjDk_r0X_SEcN-i-6">
          <mxGeometry width="50" height="50" relative="1" as="geometry">
            <mxPoint x="380" y="200" as="sourcePoint" />
            <mxPoint x="520" y="50" as="targetPoint" />
          </mxGeometry>
        </mxCell>
        <mxCell id="QBl1TxjDk_r0X_SEcN-i-10" value="Student" style="ellipse;whiteSpace=wrap;html=1;" vertex="1" parent="1">
          <mxGeometry x="140" y="10" width="80" height="80" as="geometry" />
        </mxCell>
        <mxCell id="QBl1TxjDk_r0X_SEcN-i-13" style="edgeStyle=orthogonalEdgeStyle;rounded=0;orthogonalLoop=1;jettySize=auto;html=1;exitX=1;exitY=0.5;exitDx=0;exitDy=0;entryX=0.989;entryY=0.592;entryDx=0;entryDy=0;entryPerimeter=0;" edge="1" parent="1" source="Mwi1WYG2rO0tmVBABfF1-1" target="Mwi1WYG2rO0tmVBABfF1-1">
          <mxGeometry relative="1" as="geometry" />
        </mxCell>
      </root>
    </mxGraphModel>
  </diagram>
  <diagram id="KC-SwptBXOe__IcNISrX" name="Page-2">
    <mxGraphModel dx="786" dy="459" grid="1" gridSize="10" guides="1" tooltips="1" connect="1" arrows="1" fold="1" page="1" pageScale="1" pageWidth="850" pageHeight="1100" math="0" shadow="0">
      <root>
        <mxCell id="0" />
        <mxCell id="1" parent="0" />
        <mxCell id="PFZDUjrd2myeDeU2D7-C-3" value="" style="edgeStyle=orthogonalEdgeStyle;rounded=0;orthogonalLoop=1;jettySize=auto;html=1;" edge="1" parent="1" source="PFZDUjrd2myeDeU2D7-C-1" target="PFZDUjrd2myeDeU2D7-C-2">
          <mxGeometry relative="1" as="geometry" />
        </mxCell>
        <mxCell id="PFZDUjrd2myeDeU2D7-C-5" value="" style="edgeStyle=orthogonalEdgeStyle;rounded=0;orthogonalLoop=1;jettySize=auto;html=1;" edge="1" parent="1" source="PFZDUjrd2myeDeU2D7-C-1" target="PFZDUjrd2myeDeU2D7-C-4">
          <mxGeometry relative="1" as="geometry" />
        </mxCell>
        <mxCell id="PFZDUjrd2myeDeU2D7-C-1" value="ADMIN" style="ellipse;whiteSpace=wrap;html=1;" vertex="1" parent="1">
          <mxGeometry x="330" y="20" width="120" height="80" as="geometry" />
        </mxCell>
        <mxCell id="_6cXGxtCkKEGSayjNwPH-2" value="" style="edgeStyle=orthogonalEdgeStyle;rounded=0;orthogonalLoop=1;jettySize=auto;html=1;" edge="1" parent="1" source="PFZDUjrd2myeDeU2D7-C-2" target="_6cXGxtCkKEGSayjNwPH-1">
          <mxGeometry relative="1" as="geometry" />
        </mxCell>
        <mxCell id="PFZDUjrd2myeDeU2D7-C-2" value="Manage User" style="whiteSpace=wrap;html=1;" vertex="1" parent="1">
          <mxGeometry x="130" y="30" width="120" height="60" as="geometry" />
        </mxCell>
        <mxCell id="PFZDUjrd2myeDeU2D7-C-4" value="Manage Books" style="whiteSpace=wrap;html=1;" vertex="1" parent="1">
          <mxGeometry x="530" y="30" width="120" height="60" as="geometry" />
        </mxCell>
        <mxCell id="_6cXGxtCkKEGSayjNwPH-1" value="" style="whiteSpace=wrap;html=1;" vertex="1" parent="1">
          <mxGeometry x="130" y="170" width="120" height="60" as="geometry" />
        </mxCell>
      </root>
    </mxGraphModel>
  </diagram>
  <diagram id="uH_YhuMChYsaiJdJ6lrG" name="Page-3">
    <mxGraphModel dx="786" dy="459" grid="1" gridSize="10" guides="1" tooltips="1" connect="1" arrows="1" fold="1" page="1" pageScale="1" pageWidth="850" pageHeight="1100" math="0" shadow="0">
      <root>
        <mxCell id="0" />
        <mxCell id="1" parent="0" />
        <mxCell id="bKJF-ZPT3EKSkivZhpaS-3" value="" style="edgeStyle=orthogonalEdgeStyle;rounded=0;orthogonalLoop=1;jettySize=auto;html=1;" edge="1" parent="1" source="bKJF-ZPT3EKSkivZhpaS-1" target="bKJF-ZPT3EKSkivZhpaS-2">
          <mxGeometry relative="1" as="geometry" />
        </mxCell>
        <mxCell id="bKJF-ZPT3EKSkivZhpaS-1" value="BOOKS" style="ellipse;whiteSpace=wrap;html=1;" vertex="1" parent="1">
          <mxGeometry x="320" y="60" width="120" height="80" as="geometry" />
        </mxCell>
        <mxCell id="bKJF-ZPT3EKSkivZhpaS-2" value="" style="whiteSpace=wrap;html=1;" vertex="1" parent="1">
          <mxGeometry x="50" y="180" width="120" height="60" as="geometry" />
        </mxCell>
      </root>
    </mxGraphModel>
  </diagram>
</mxfile>
